<?xml version="1.0" encoding="utf-8"?>
<!-- Generator: Adobe Illustrator 16.0.0, SVG Export Plug-In . SVG Version: 6.00 Build 0)  -->
<!DOCTYPE svg PUBLIC "-//W3C//DTD SVG 1.1//EN" "http://www.w3.org/Graphics/SVG/1.1/DTD/svg11.dtd">
<svg version="1.1" id="Layer_1" xmlns="http://www.w3.org/2000/svg" xmlns:xlink="http://www.w3.org/1999/xlink" x="0px" y="0px"
	 width="612px" height="612px" viewBox="0 0 612 612" enable-background="new 0 0 612 612" xml:space="preserve">
<g>
	<g>
		<g>
			<path fill="#B97850" d="M603.33,297.917c-16.4,6.022-34.363,8.083-52.754,8.083c-8.617,0-17.023-0.816-25.318-1.992
				c-0.783,0.918-1.498,1.893-2.494,2.643l-17.865,13.486c-5.797,4.375-13.74,4.551-19.727,0.437l-24.549-16.884
				c-6.918-4.758-8.746-11.271-5.014-18.793l0,0c0.875-1.762,1.615-5.338-1.926-7.532c-50.104-31.056-82.488-87.416-82.488-150.743
				c0-36.327,10.91-70.042,29.498-98.268c3.883-5.896,0.764-13.786-6.008-15.79C362.654,3.081,328.457-1.348,292.966,0.36
				C137.971,7.815,11.073,133.431,2.382,288.363C-7.549,465.362,133.045,612,307.887,612c168.998,0,306-137.001,306-306
				C613.887,302.107,611.248,295.009,603.33,297.917z"/>
		</g>
	</g>
	<g>
		<g>
			<path fill="#A5694B" d="M128.507,306c0-147.289,104.076-270.239,242.69-299.405C350.764,2.296,329.596,0,307.887,0
				c-169,0-306,137-306,306c0,168.999,137.001,306,306,306c21.709,0,42.877-2.296,63.311-6.595
				C232.582,576.237,128.507,453.289,128.507,306z"/>
		</g>
	</g>
	<g>
		<g>
			<path fill="#734B46" d="M255.787,295.768l-10.505,31.518c-3.321,9.964,1.189,20.853,10.583,25.549l33.336,16.667
				c8.125,4.062,17.938,2.471,24.359-3.953l19.801-19.8c6.848-6.847,8.156-17.477,3.174-25.78l-17.031-28.384
				c-3.814-6.355-10.684-10.246-18.096-10.246h-25.6C266.724,281.337,258.659,287.148,255.787,295.768z"/>
		</g>
	</g>
	<g>
		<g>
			<path fill="#734B46" d="M139.082,158.534l9.984,31.686c3.156,10.017,13.198,16.188,23.56,14.481l36.774-6.061
				c8.962-1.477,15.974-8.524,17.408-17.494l4.417-27.65c1.527-9.562-3.649-18.938-12.555-22.739l-30.444-12.993
				c-6.817-2.91-14.663-2.028-20.666,2.32l-20.73,15.019C139.472,140.433,136.352,149.872,139.082,158.534z"/>
		</g>
	</g>
	<g>
		<g>
			<path fill="#734B46" d="M364.256,127.197l-26.711,19.755c-8.443,6.245-11.01,17.748-6.021,26.99l17.701,32.797
				c4.314,7.993,13.26,12.329,22.209,10.764l27.582-4.825c9.539-1.668,16.719-9.615,17.414-19.274l2.373-33.015
				c0.531-7.394-2.854-14.524-8.92-18.785l-20.951-14.712C381.5,121.673,371.559,121.796,364.256,127.197z"/>
		</g>
	</g>
	<g>
		<g>
			<path fill="#734B46" d="M85.088,335.103l6.961,25.632c2.202,8.103,10.024,13.353,18.356,12.319l29.57-3.665
				c7.207-0.894,13.034-6.299,14.465-13.418l4.413-21.947c1.526-7.59-2.31-15.244-9.301-18.565l-23.903-11.354
				c-5.354-2.543-11.648-2.09-16.582,1.192l-17.04,11.335C85.979,320.656,83.184,328.096,85.088,335.103z"/>
		</g>
	</g>
	<g>
		<g>
			<path fill="#734B46" d="M456.07,398.274l-32.369-7.473c-10.232-2.361-20.646,3.159-24.432,12.956l-13.436,34.766
				c-3.275,8.473-0.76,18.091,6.242,23.876l21.588,17.835c7.467,6.167,18.17,6.463,25.965,0.717l26.645-19.643
				c5.967-4.397,9.188-11.604,8.484-18.984l-2.426-25.485C471.473,407.797,464.922,400.319,456.07,398.274z"/>
		</g>
	</g>
	<g>
		<g>
			<path fill="#734B46" d="M261.477,486.332l-17.525-19.902c-5.54-6.291-14.864-7.553-21.875-2.957l-24.884,16.306
				c-6.064,3.975-8.906,11.383-7.054,18.394l5.709,21.609c1.975,7.474,8.782,12.644,16.511,12.541l26.418-0.354
				c5.917-0.079,11.358-3.256,14.335-8.37l10.278-17.659C267.04,499.672,266.267,491.773,261.477,486.332z"/>
		</g>
	</g>
	<g>
		<g>
			<path fill="#644141" d="M171.973,190.22l-9.985-31.686c-2.73-8.663,0.391-18.103,7.747-23.433l20.73-15.019
				c0.439-0.319,0.948-0.481,1.406-0.764l-3.648-1.558c-6.818-2.908-14.663-2.027-20.666,2.321l-20.73,15.019
				c-7.355,5.33-10.477,14.769-7.746,23.433l9.984,31.686c3.157,10.017,13.198,16.188,23.56,14.481l10.612-1.749
				C178.022,200.525,173.812,196.058,171.973,190.22z"/>
		</g>
	</g>
	<g>
		<g>
			<path fill="#644141" d="M372.131,206.741l-17.701-32.797c-4.988-9.242-2.422-20.746,6.021-26.991l26.709-19.754
				c0.359-0.266,0.789-0.362,1.16-0.603c-7.365-4.819-16.949-4.66-24.066,0.603l-26.709,19.754
				c-8.443,6.245-11.012,17.749-6.021,26.991l17.701,32.797c4.314,7.994,13.26,12.329,22.207,10.764l10.143-1.774
				C377.65,213.845,374.303,210.762,372.131,206.741z"/>
		</g>
	</g>
	<g>
		<g>
			<path fill="#644141" d="M436.57,480.234l-21.586-17.835c-7.004-5.787-9.518-15.403-6.242-23.876l13.436-34.766
				c1.895-4.901,5.449-8.731,9.811-11.043l-8.285-1.911c-10.234-2.361-20.646,3.158-24.434,12.954l-13.434,34.766
				c-3.275,8.473-0.76,18.089,6.242,23.876l21.588,17.835c7.178,5.931,17.295,6.283,24.996,1.205
				C437.98,480.998,437.209,480.761,436.57,480.234z"/>
		</g>
	</g>
	<g>
		<g>
			<path fill="#644141" d="M278.771,352.831c-9.394-4.696-13.905-15.585-10.583-25.547l10.505-31.519
				c2.873-8.617,10.937-14.429,20.021-14.429h-22.907c-9.083,0-17.148,5.812-20.021,14.429l-10.505,31.519
				c-3.321,9.962,1.188,20.852,10.582,25.547l33.334,16.669c6.681,3.34,14.4,2.667,20.541-1.182L278.771,352.831z"/>
		</g>
	</g>
	<g>
		<g>
			<path fill="#644141" d="M114.956,360.733l-6.962-25.633c-1.903-7.008,0.891-14.445,6.938-18.47l15.452-10.277l-4.735-2.248
				c-5.354-2.543-11.648-2.09-16.582,1.191l-17.04,11.333c-6.046,4.023-8.841,11.462-6.938,18.47l6.961,25.633
				c2.2,8.104,10.024,13.353,18.356,12.32l13.762-1.706C119.823,369.303,116.293,365.659,114.956,360.733z"/>
		</g>
	</g>
	<g>
		<g>
			<path fill="#644141" d="M218.756,519.779l-5.71-21.61c-1.852-7.01,0.989-14.419,7.054-18.393l22.272-14.594
				c-5.618-5.002-13.864-5.925-20.295-1.711l-24.884,16.305c-6.064,3.976-8.906,11.383-7.054,18.393l5.709,21.61
				c1.975,7.474,8.782,12.645,16.511,12.542l21.097-0.282C226.519,531.363,220.569,526.646,218.756,519.779z"/>
		</g>
	</g>
	<g>
		<g>
			<path fill="#C98850" d="M286.782,232.139L286.782,232.139c-5.827,0-10.552-4.725-10.552-10.552v-21.104
				c0-5.827,4.725-10.552,10.552-10.552l0,0c5.827,0,10.552,4.725,10.552,10.552v21.104
				C297.334,227.414,292.61,232.139,286.782,232.139z"/>
		</g>
	</g>
	<g>
		<g>
			<path fill="#925F4A" d="M196.188,278.716L196.188,278.716c-4.121,4.121-10.802,4.121-14.923,0l-14.923-14.923
				c-4.121-4.12-4.121-10.801,0-14.923l0,0c4.121-4.12,10.802-4.12,14.923,0l14.923,14.923
				C200.308,267.914,200.308,274.596,196.188,278.716z"/>
		</g>
	</g>
	<g>
		<g>
			<path fill="#C98850" d="M194.615,420.593L194.615,420.593c-5.419-2.141-8.077-8.271-5.937-13.689l7.754-19.628
				c2.141-5.419,8.271-8.077,13.691-5.938l0,0c5.42,2.141,8.078,8.271,5.937,13.691l-7.754,19.627
				C206.165,420.076,200.034,422.733,194.615,420.593z"/>
		</g>
	</g>
	<g>
		<g>
			<path fill="#925F4A" d="M319.119,451.045L319.119,451.045c-5.666,1.359-11.361-2.135-12.72-7.803l-4.917-20.523
				c-1.359-5.667,2.135-11.36,7.803-12.72l0,0c5.668-1.358,11.361,2.136,12.721,7.803l4.918,20.523
				C328.283,443.991,324.787,449.688,319.119,451.045z"/>
		</g>
	</g>
	<g>
		<g>
			<path fill="#925F4A" d="M350.879,542.124L350.879,542.124c-2.203-5.396,0.385-11.555,5.781-13.757l19.537-7.979
				c5.396-2.202,11.555,0.387,13.758,5.781l0,0c2.203,5.396-0.387,11.554-5.781,13.757l-19.537,7.979
				C359.24,550.106,353.082,547.519,350.879,542.124z"/>
		</g>
	</g>
	<g>
		<g>
			<path fill="#925F4A" d="M289.258,84.708L289.258,84.708c1.368-5.665,7.068-9.148,12.733-7.782l20.515,4.952
				c5.664,1.368,9.146,7.068,7.781,12.733l0,0c-1.367,5.665-7.068,9.148-12.732,7.782l-20.515-4.951
				C291.375,96.073,287.89,90.373,289.258,84.708z"/>
		</g>
	</g>
	<g>
		<g>
			<path fill="#925F4A" d="M96.762,462.438L96.762,462.438c-5.488-1.959-8.351-7.995-6.392-13.483l7.092-19.875
				c1.958-5.488,7.996-8.352,13.484-6.393l0,0c5.488,1.958,8.35,7.995,6.392,13.483l-7.092,19.876
				C108.287,461.534,102.25,464.396,96.762,462.438z"/>
		</g>
	</g>
	<g>
		<g>
			<path fill="#C98850" d="M81.611,214.109L81.611,214.109c5.662-1.375,11.368,2.1,12.744,7.764l4.98,20.507
				c1.375,5.662-2.1,11.368-7.764,12.744l0,0c-5.662,1.375-11.368-2.101-12.744-7.763l-4.98-20.508
				C72.473,221.189,75.948,215.485,81.611,214.109z"/>
		</g>
	</g>
	<g>
		<g>
			<path fill="#925F4A" d="M377.377,310.371L377.377,310.371c-4.119-4.12-4.119-10.803,0-14.923l14.924-14.923
				c4.119-4.121,10.801-4.121,14.922,0l0,0c4.121,4.121,4.121,10.801,0,14.923l-14.922,14.923
				C388.18,314.491,381.498,314.491,377.377,310.371z"/>
		</g>
	</g>
	<g>
		<g>
			<path fill="#925F4A" d="M517.641,351.297L517.641,351.297c4.119-4.12,10.801-4.12,14.922,0l14.924,14.923
				c4.119,4.121,4.119,10.804,0,14.923l0,0c-4.121,4.121-10.803,4.121-14.924,0l-14.922-14.923
				C513.52,362.1,513.52,355.418,517.641,351.297z"/>
		</g>
	</g>
	<g>
		<g>
			<path fill="#C98850" d="M520.404,434.995L520.404,434.995c5.393,2.216,7.965,8.381,5.748,13.771l-8.021,19.52
				c-2.215,5.391-8.381,7.964-13.77,5.748l0,0c-5.391-2.216-7.965-8.38-5.748-13.771l8.021-19.52
				C508.85,435.354,515.016,432.779,520.404,434.995z"/>
		</g>
	</g>
	<g>
		<g>
			<path fill="#B97850" d="M508.574,177.292l7.162,35.811c1.117,5.584,6.465,9.275,12.082,8.338l43.24-7.207
				c5.584-0.931,9.438-6.1,8.734-11.716l-7.178-57.421c-0.973-7.783-9.797-11.822-16.322-7.471l-43.227,28.817
				C509.51,168.814,507.736,173.099,508.574,177.292z"/>
		</g>
	</g>
	<g>
		<g>
			<path fill="#B97850" d="M476.176,132.722l75.867-33.719c5.104-2.268,7.555-8.118,5.594-13.347l-24.592-65.584
				c-1.994-5.314-7.832-8.1-13.217-6.305l-49.023,16.34c-2.943,0.981-5.307,3.209-6.461,6.091l-17.719,44.296
				c-1.006,2.515-1.006,5.322,0,7.837l15.467,38.666C464.314,132.555,470.707,135.152,476.176,132.722z"/>
		</g>
	</g>
	<g>
		<g>
			<path fill="#A5694B" d="M463.215,179.379h11.18c6.658,0,11.652,6.092,10.348,12.621l-4.938,24.688
				c-1.475,7.364-9.951,10.875-16.199,6.709l-11.84-7.894c-3.959-2.639-5.662-7.603-4.158-12.116l5.6-16.794
				C454.643,182.285,458.674,179.379,463.215,179.379z"/>
		</g>
	</g>
	<g>
		<g>
			<path fill="#A5694B" d="M497.816,263.793v1.902c0,5.029,3.553,9.359,8.482,10.347l31.656,6.331
				c6.527,1.307,12.621-3.688,12.621-10.348v-8.233c0-5.827-4.727-10.552-10.553-10.552h-31.654
				C502.541,253.241,497.816,257.966,497.816,263.793z"/>
		</g>
	</g>
	<g>
		<g>
			<path fill="#A5694B" d="M482.383,119.985l-15.467-38.666c-1.006-2.515-1.006-5.322,0-7.837l17.719-44.296
				c1.014-2.532,3.059-4.405,5.516-5.525l-19.346,6.448c-2.943,0.981-5.307,3.21-6.461,6.092l-17.719,44.296
				c-1.006,2.514-1.006,5.32,0,7.836L462.092,127c2.223,5.554,8.613,8.154,14.082,5.723l14.443-6.418
				C487.061,125.753,483.824,123.586,482.383,119.985z"/>
		</g>
	</g>
	<g>
		<g>
			<path fill="#A5694B" d="M533.959,211.013l-8.926-44.625c-0.631-3.149,0.041-6.274,1.553-8.958l-13.52,9.011
				c-3.559,2.373-5.332,6.657-4.494,10.85l7.162,35.811c1.117,5.583,6.465,9.274,12.082,8.337l11.988-2
				C536.898,217.582,534.689,214.656,533.959,211.013z"/>
		</g>
	</g>
</g>
</svg>
