<?xml version="1.0" encoding="utf-8"?>
<!-- Generator: Adobe Illustrator 16.0.4, SVG Export Plug-In . SVG Version: 6.00 Build 0)  -->
<!DOCTYPE svg PUBLIC "-//W3C//DTD SVG 1.1//EN" "http://www.w3.org/Graphics/SVG/1.1/DTD/svg11.dtd">
<svg version="1.1" id="Layer_1" xmlns="http://www.w3.org/2000/svg" xmlns:xlink="http://www.w3.org/1999/xlink" x="0px" y="0px"
	 width="455px" height="500px" viewBox="0 0 455 500" enable-background="new 0 0 455 500" xml:space="preserve">
<path id="gr_57_" fill="#F3BA48" d="M451.962,345.021c0,19.005-13.464,42.328-29.924,51.83l-164.58,95.021
	c-16.46,9.502-43.394,9.502-59.851,0L33.023,396.852c-16.456-9.502-29.923-32.825-29.923-51.83V154.979
	c0-19.004,13.467-42.328,29.923-51.83L197.607,8.127c16.457-9.502,43.391-9.502,59.851,0l164.58,95.021
	c16.46,9.502,29.924,32.826,29.924,51.83V345.021z"/>
<path fill="#FFFFFF" d="M110.447,254.076c-0.179,2.012,0.26,3.698,1.002,5.176c-1.923-0.385-3.796-0.674-5.75-1.113
	c-15.704-3.55-25.561-19.158-22.014-34.863c3.546-15.704,19.126-25.57,34.863-22.014c2.494,0.566,4.917,0.992,7.343,1.438
	c1.883,1.491,2.757,2.598,2.632,4.008c-0.165,1.877-1.93,2.909-5.639,4.67c-3.81,1.803-9.029,4.279-9.562,10.299
	c-0.533,6.014,4.167,9.375,7.599,11.824c3.341,2.389,4.896,3.719,4.731,5.595s-1.934,2.915-5.643,4.677
	C116.2,245.58,110.98,248.057,110.447,254.076z M172.31,388.618c-4.272-4.271-2.817-9.859-1.759-13.942
	c1.033-3.969,1.374-5.986,0.048-7.316c-1.33-1.329-3.351-0.984-7.329,0.041c-4.073,1.06-9.668,2.504-13.946-1.769
	c-4.269-4.265-2.817-9.859-1.758-13.936c1.032-3.976,1.373-5.993,0.044-7.322c-0.382-0.385-0.848-0.594-1.374-0.723
	c-3.935,4.812-8.331,9.313-13.355,13.302c-12.616,10.002-14.729,28.345-4.728,40.951c5.757,7.255,14.267,11.041,22.861,11.041
	c6.348,0,12.741-2.065,18.101-6.316c4.852-3.848,9.31-7.64,13.477-11.412C179.187,391.797,175.403,391.709,172.31,388.618z
	 M371.376,223.275c-3.381-14.975-17.709-24.498-32.678-22.277c0.837,1.242,1.444,2.693,1.606,4.494
	c0.526,6.014-4.171,9.367-7.599,11.817c-3.348,2.382-4.899,3.712-4.737,5.581c0.168,1.883,1.937,2.916,5.648,4.678
	c3.812,1.809,9.022,4.285,9.562,10.305c0.526,6.02-4.171,9.381-7.599,11.83c-3.348,2.389-4.899,3.719-4.738,5.595
	c0.162,1.876,1.931,2.915,5.643,4.677c0.311,0.148,0.647,0.311,0.979,0.473c3.914-0.676,7.862-1.397,11.897-2.309
	C365.072,254.589,374.926,238.98,371.376,223.275z M303.281,355.907c-3.968-1.032-5.986-1.37-7.315-0.047
	c-1.336,1.336-0.999,3.354,0.034,7.329c1.06,4.083,2.504,9.671-1.762,13.942c-4.266,4.272-9.867,2.821-13.943,1.762
	c-3.968-1.039-5.979-1.37-7.315-0.048c-1.336,1.337-0.999,3.354,0.034,7.329c0.506,1.944,1.073,4.226,1.1,6.54
	c3.686,3.279,7.626,6.58,11.831,9.914c5.365,4.251,11.756,6.316,18.106,6.316c8.598,0,17.102-3.786,22.852-11.041
	c10.015-12.606,7.896-30.949-4.718-40.951c-1.478-1.174-2.868-2.423-4.259-3.678c-0.229,0.29-0.425,0.587-0.701,0.87
	C312.959,358.404,307.364,356.967,303.281,355.907z M330.654,233.811c-3.813-1.809-9.03-4.285-9.569-10.306
	c-0.526-6.013,4.17-9.367,7.599-11.817c3.348-2.389,4.899-3.718,4.737-5.588c-0.135-1.443-1.241-2.395-3.448-3.562
	c-25.018,4.67-46.344,3.239-59.105,1.369c13.14-11.857,21.454-28.965,21.454-48.063c0-35.782-29.006-64.788-64.787-64.788
	c-35.785,0-64.791,29.006-64.791,64.788c0,19.099,8.308,36.206,21.45,48.063c-11.017,1.613-28.436,2.889-49.066,0.23
	c0.243,0.979,0.385,2.018,0.28,3.186c-0.533,6.012-5.753,8.489-9.562,10.298c-3.709,1.761-5.474,2.794-5.639,4.663
	c-0.165,1.877,1.391,3.206,4.73,5.596c3.432,2.449,8.133,5.811,7.6,11.822c-0.533,6.021-5.754,8.504-9.563,10.312
	c-3.708,1.762-5.477,2.794-5.642,4.67c-0.165,1.883,1.391,3.213,4.73,5.602c0.479,0.344,0.985,0.709,1.499,1.094
	c12.559,1.835,24.39,2.618,35.016,2.618c5.881,0,11.405-0.216,16.523-0.567c-2.129,21.913-8.227,51.297-24.565,74.56
	c0.676,0.398,1.333,0.871,1.961,1.498c4.269,4.272,2.817,9.86,1.758,13.943c-1.032,3.975-1.373,5.986-0.044,7.315
	c1.333,1.336,3.354,0.992,7.329-0.033c4.08-1.061,9.682-2.511,13.946,1.761c4.272,4.272,2.817,9.86,1.758,13.943
	c-1.032,3.968-1.373,5.985-0.047,7.315c1.329,1.329,3.351,0.985,7.332-0.034c2.082-0.54,4.56-1.174,7.053-1.1
	c19.271-19.747,30.021-39.736,35.951-65.078c6.131,26.226,17.469,46.715,38.031,67.143c-0.661-3.509-0.694-7.483,2.531-10.703
	c4.278-4.271,9.866-2.814,13.943-1.762c3.968,1.04,5.985,1.384,7.315,0.048c1.329-1.33,0.985-3.348-0.041-7.322
	c-1.06-4.083-2.511-9.678,1.769-13.95c4.258-4.265,9.853-2.82,13.936-1.761c3.976,1.025,5.986,1.369,7.322,0.047
	c0.271-0.27,0.426-0.594,0.567-0.932c-22.75-24.288-30.484-59.584-32.947-84.898c5.129,0.352,10.649,0.567,16.527,0.567
	c9.307,0,19.564-0.642,30.376-2.005c-1.512-1.518-2.672-3.448-2.902-6.087c-0.532-6.013,4.171-9.374,7.6-11.823
	c3.348-2.389,4.899-3.719,4.737-5.602C336.127,236.611,334.359,235.572,330.654,233.811z M217.856,156.207
	c1.91,0,3.455,1.545,3.455,3.455c0,3.429,2.791,6.216,6.22,6.216c3.432,0,6.219-2.787,6.219-6.216c0-1.91,1.545-3.455,3.455-3.455
	s3.455,1.545,3.455,3.455c0,7.234-5.892,13.127-13.129,13.127c-7.242,0-13.13-5.893-13.13-13.127
	C214.401,157.752,215.946,156.207,217.856,156.207z M187.439,161.728c0,1.909-1.545,3.456-3.455,3.456s-3.455-1.547-3.455-3.456
	c0-7.235,5.888-13.126,13.13-13.126c7.237,0,13.126,5.891,13.126,13.126c0,1.909-1.546,3.456-3.455,3.456
	c-1.91,0-3.456-1.547-3.456-3.456c0-3.429-2.787-6.216-6.215-6.216C190.23,155.512,187.439,158.299,187.439,161.728z
	 M193.659,231.947v-26.076c0-3.8,2.692-5.352,5.985-3.455l22.581,13.037c3.294,1.904,3.294,5.016,0,6.912l-22.581,13.037
	C196.352,237.307,193.659,235.747,193.659,231.947z M227.531,295.027c-7.627,0-13.822-6.188-13.822-13.821
	c0-7.626,6.195-13.821,13.822-13.821c7.629,0,13.824,6.195,13.824,13.821C241.355,288.839,235.16,295.027,227.531,295.027z
	 M227.531,252.686c-7.627,0-13.822-6.188-13.822-13.82c0-7.627,6.195-13.822,13.822-13.822c7.629,0,13.824,6.195,13.824,13.822
	C241.355,246.498,235.16,252.686,227.531,252.686z M262.763,231.947c0,3.8-2.687,5.359-5.979,3.455l-22.581-13.037
	c-3.294-1.896-3.294-5.008,0-6.912l22.581-13.037c3.293-1.896,5.979-0.345,5.979,3.455V231.947z M267.621,161.728
	c0-3.429-2.794-6.216-6.222-6.216c-3.429,0-6.209,2.787-6.209,6.216c0,1.909-1.553,3.456-3.456,3.456
	c-1.916,0-3.455-1.547-3.455-3.456c0-7.235,5.885-13.126,13.12-13.126c7.248,0,13.133,5.891,13.133,13.126
	c0,1.909-1.546,3.456-3.456,3.456C269.167,165.184,267.621,163.637,267.621,161.728z"/>
</svg>
