<?xml version="1.0" encoding="utf-8"?>
<!-- Generator: Adobe Illustrator 16.0.4, SVG Export Plug-In . SVG Version: 6.00 Build 0)  -->
<!DOCTYPE svg PUBLIC "-//W3C//DTD SVG 1.1//EN" "http://www.w3.org/Graphics/SVG/1.1/DTD/svg11.dtd">
<svg version="1.1" id="gr_x5F_icon01_x5F_cookies" xmlns="http://www.w3.org/2000/svg" xmlns:xlink="http://www.w3.org/1999/xlink"
	 x="0px" y="0px" width="250px" height="250px" viewBox="0 0 250 250" enable-background="new 0 0 250 250" xml:space="preserve">
<path id="gr_2_" fill="#F3BA48" d="M237.664,172.702c0,9.541-6.756,21.249-15.022,26.02l-82.616,47.7
	c-8.267,4.771-21.784,4.771-30.044,0l-82.623-47.7c-8.26-4.771-15.022-16.479-15.022-26.02V77.298
	c0-9.54,6.763-21.249,15.022-26.019l82.623-47.701c8.26-4.77,21.777-4.77,30.044,0l82.616,47.701
	c8.267,4.771,15.022,16.479,15.022,26.019V172.702z"/>
<path fill="#FFFFFF" d="M96.051,195.812c1.338,1.338,2.849,1.822,4.302,1.921c-1.486,1.287-3.028,2.58-4.678,3.889
	c-2.69,2.135-5.898,3.172-9.087,3.172c-4.312,0-8.587-1.904-11.474-5.543c-5.021-6.332-3.964-15.54,2.371-20.561
	c1.897-1.505,3.629-3.147,5.211-4.896c0.434-0.128,0.813-0.257,0.881-0.345c0.074,0.352-0.224,1.487-0.399,2.164
	c-0.562,2.176-1.508,5.817,1.338,8.663c2.845,2.846,6.479,1.897,8.662,1.339c0.677-0.177,1.809-0.472,1.938-0.627
	c0.074,0.353-0.224,1.487-0.399,2.161C94.153,189.327,93.204,192.969,96.051,195.812z M70.473,118.127
	c-1.829-1.306-4.893-3.493-4.533-7.502c0.353-4.008,3.754-5.621,5.783-6.583c0.634-0.3,1.69-0.803,1.914-1.085
	c-0.203-0.055-1.151-0.667-1.721-1.074c-0.521-0.373-1.146-0.828-1.762-1.367c-7.854-1.699-15.595,3.229-17.366,11.067
	c-1.779,7.885,3.171,15.72,11.051,17.502c0.306,0.067,0.59,0.106,0.888,0.171c-0.203-0.712-0.308-1.485-0.23-2.363
	c0.356-4.01,3.754-5.624,5.783-6.588c0.634-0.3,1.69-0.803,1.914-1.088C71.997,119.214,71.042,118.533,70.473,118.127z
	 M172.516,178.689c-1.694-1.346-3.246-2.815-4.689-4.36c-0.358-0.085-0.697-0.17-1.003-0.251c-0.677-0.176-1.809-0.471-1.928-0.63
	c-0.074,0.352,0.221,1.487,0.396,2.164c0.562,2.176,1.512,5.817-1.334,8.663c-2.847,2.846-6.485,1.897-8.667,1.339
	c-0.678-0.177-1.809-0.472-1.938-0.627c-0.071,0.353,0.224,1.487,0.399,2.161c0.562,2.179,1.512,5.82-1.335,8.663
	c-0.945,0.945-1.979,1.446-3.015,1.711c1.559,1.355,3.185,2.716,4.919,4.099c2.696,2.135,5.901,3.172,9.09,3.172
	c4.316,0,8.585-1.904,11.475-5.543C179.911,192.918,178.851,183.71,172.516,178.689z M197.21,111.582
	c-1.779-7.884-9.598-12.837-17.502-11.05c-0.62,0.141-1.217,0.232-1.833,0.357c-0.468,0.376-0.922,0.71-1.321,0.993
	c-0.569,0.407-1.518,1.02-1.721,1.074c0.224,0.283,1.28,0.786,1.917,1.085c2.026,0.962,5.428,2.575,5.783,6.583
	c0.355,4.009-2.707,6.196-4.536,7.502c-0.569,0.406-1.524,1.087-1.721,1.089c0.223,0.285,1.28,0.788,1.917,1.088
	c2.026,0.964,5.428,2.578,5.78,6.588c0.088,0.999-0.034,1.886-0.299,2.673c0.834-0.169,1.64-0.289,2.487-0.48
	C194.046,127.302,198.995,119.467,197.21,111.582z M175.212,126.571c-2.025-0.964-5.428-2.578-5.779-6.588
	c-0.359-4.01,2.703-6.196,4.533-7.502c0.568-0.407,1.521-1.086,1.721-1.086c-0.224-0.283-1.281-0.786-1.911-1.086
	c-2.032-0.962-5.431-2.575-5.786-6.583c-0.041-0.486-0.034-0.942,0.021-1.375c-8.87,0.813-16.337,0.229-21.256-0.493
	c6.6-5.953,10.773-14.541,10.773-24.126c0-17.963-14.564-32.524-32.524-32.524c-17.966,0-32.526,14.561-32.526,32.524
	c0,9.585,4.17,18.174,10.77,24.126c-5.21,0.764-13.239,1.404-22.8,0.362c0.062,0.473,0.082,0.971,0.034,1.506
	c-0.353,4.008-3.754,5.621-5.783,6.583c-0.634,0.3-1.69,0.803-1.914,1.086c0.203,0,1.152,0.679,1.721,1.086
	c1.83,1.306,4.893,3.493,4.537,7.502c-0.356,4.01-3.754,5.624-5.783,6.588c-0.634,0.3-1.694,0.803-1.914,1.088
	c0.196,0.003,1.148,0.685,1.721,1.091c0.81,0.581,1.86,1.349,2.748,2.359c5.18,0.623,10.095,0.915,14.573,0.915
	c2.951,0,5.726-0.108,8.294-0.285c-1.023,10.552-3.88,24.561-11.35,35.99c0.42,0.264,0.833,0.568,1.227,0.965
	c2.846,2.843,1.903,6.488,1.338,8.663c-0.176,0.678-0.471,1.81-0.396,2.161c0.129-0.152,1.261-0.446,1.938-0.623
	c2.175-0.562,5.813-1.508,8.662,1.342c2.846,2.843,1.9,6.484,1.335,8.659c-0.176,0.678-0.471,1.81-0.396,2.162
	c0.129-0.153,1.264-0.447,1.941-0.624c1.402-0.358,3.419-0.867,5.438-0.427c8.748-9.415,13.762-19.057,16.584-31.112
	c2.802,11.978,7.769,21.575,16.414,30.93c1.538-0.048,2.992,0.332,4.079,0.609c0.678,0.177,1.81,0.471,1.941,0.624
	c0.071-0.353-0.22-1.484-0.396-2.162c-0.565-2.175-1.511-5.816,1.335-8.659c2.846-2.85,6.484-1.904,8.659-1.342
	c0.678,0.177,1.812,0.471,1.938,0.623c0.074-0.352-0.217-1.483-0.394-2.161c-0.565-2.175-1.511-5.82,1.335-8.663
	c0.759-0.759,1.572-1.232,2.398-1.531c-7.195-11.325-9.98-25.045-10.99-35.424c2.571,0.177,5.343,0.285,8.294,0.285
	c3.984,0,8.293-0.203,12.84-0.685c0.929-1.13,2.08-1.965,2.954-2.59c0.569-0.406,1.524-1.088,1.722-1.091
	C176.906,127.374,175.849,126.871,175.212,126.571z M119.289,77.452c1.438,0,2.602,1.166,2.602,2.602
	c0,0.901,1.363,2.704,3.15,2.704s3.148-1.803,3.148-2.704c0-1.437,1.166-2.602,2.603-2.602s2.602,1.166,2.602,2.602
	c0,3.733-3.574,7.907-8.353,7.907c-4.783,0-8.354-4.173-8.354-7.907C116.688,78.618,117.854,77.452,119.289,77.452z M105.217,74.85
	c0,1.437-1.166,2.602-2.603,2.602s-2.602-1.166-2.602-2.602c0-3.733,3.574-7.907,8.351-7.907c4.783,0,8.355,4.174,8.355,7.907
	c0,1.437-1.166,2.602-2.604,2.602c-1.436,0-2.602-1.166-2.602-2.602c0-0.901-1.361-2.704-3.15-2.704
	C106.578,72.146,105.217,73.949,105.217,74.85z M107.694,115.937v-13.091c0-1.907,1.352-2.688,3.005-1.734l11.336,6.545
	c1.653,0.954,1.653,2.515,0,3.469l-11.336,6.545C109.046,118.625,107.694,117.844,107.694,115.937z M125.04,151.07
	c-3.828,0-6.938-3.106-6.938-6.938c0-3.829,3.11-6.938,6.938-6.938c3.832,0,6.938,3.109,6.938,6.938
	C131.979,147.964,128.872,151.07,125.04,151.07z M125.04,129.815c-3.828,0-6.938-3.106-6.938-6.939c0-3.828,3.11-6.938,6.938-6.938
	c3.832,0,6.938,3.11,6.938,6.938C131.979,126.709,128.872,129.815,125.04,129.815z M142.386,115.937
	c0,1.907-1.352,2.688-3.005,1.735l-11.336-6.545c-1.653-0.954-1.653-2.516,0-3.469l11.336-6.545
	c1.653-0.954,3.005-0.173,3.005,1.734V115.937z M144.864,74.85c0-0.901-1.362-2.704-3.15-2.704c-1.786,0-3.147,1.803-3.147,2.704
	c0,1.437-1.166,2.602-2.603,2.602s-2.602-1.166-2.602-2.602c0-3.733,3.574-7.907,8.352-7.907c4.783,0,8.354,4.174,8.354,7.907
	c0,1.437-1.166,2.602-2.603,2.602S144.864,76.287,144.864,74.85z"/>
</svg>
